<?xml version="1.0" encoding="UTF-8" standalone="no"?>
<!-- Generator: Adobe Illustrator 23.0.1, SVG Export Plug-In . SVG Version: 6.00 Build 0)  -->

<svg version="1.1" id="Layer_1" x="0px" y="0px" viewBox="0 0 1000 1000" style="enable-background:new 0 0 1000 1000;"
    xml:space="preserve" sodipodi:docname="logo.svg" inkscape:version="1.3 (0e150ed6c4, 2023-07-21)"
    xmlns:inkscape="http://www.inkscape.org/namespaces/inkscape" xmlns:sodipodi="http://sodipodi.sourceforge.net/DTD/sodipodi-0.dtd"
    xmlns="http://www.w3.org/2000/svg"><defs
   id="defs78" /><sodipodi:namedview
   id="namedview78"
   pagecolor="#ffffff"
   bordercolor="#666666"
   borderopacity="1.0"
   inkscape:showpageshadow="2"
   inkscape:pageopacity="0.0"
   inkscape:pagecheckerboard="0"
   inkscape:deskcolor="#d1d1d1"
   inkscape:zoom="0.787"
   inkscape:cx="416.13723"
   inkscape:cy="470.77509"
   inkscape:window-width="1920"
   inkscape:window-height="1027"
   inkscape:window-x="0"
   inkscape:window-y="31"
   inkscape:window-maximized="1"
   inkscape:current-layer="Layer_1" />&#10;<style
   type="text/css"
   id="style1">&#10;	.st0{opacity:0.7;}&#10;	.st1{fill:#FFCE6A;stroke:#000000;stroke-width:5;stroke-miterlimit:10;}&#10;	.st2{opacity:0.8;}&#10;	.st3{fill:#FFCE6A;stroke:#000000;stroke-miterlimit:10;}&#10;	.st4{opacity:0.9;}&#10;	.st5{fill:#838BC5;stroke:#004394;stroke-width:5;stroke-miterlimit:10;}&#10;	.st6{fill:#838BC5;stroke:#004394;stroke-width:3;stroke-miterlimit:10;}&#10;	.st7{fill:#838BC5;}&#10;	.st8{clip-path:url(#SVGID_2_);}&#10;	.st9{clip-path:url(#SVGID_4_);}&#10;	.st10{fill:none;stroke:#4D4D4D;stroke-width:5;stroke-miterlimit:10;}&#10;	.st11{fill:#ED1C24;stroke:#000000;stroke-width:10;stroke-miterlimit:10;}&#10;	.st12{fill:#1A1A1A;stroke:#000000;stroke-width:3;stroke-miterlimit:10;}&#10;	.st13{fill:#D9E021;stroke:#000000;stroke-width:3;stroke-miterlimit:10;}&#10;	.st14{fill:#FFFFFF;stroke:#000000;stroke-width:3;stroke-miterlimit:10;}&#10;	.st15{stroke:#000000;stroke-width:10;stroke-miterlimit:10;}&#10;	.st16{fill:#1A1A1A;}&#10;	.st17{fill:#FFFFFF;stroke:#000000;stroke-width:2;stroke-miterlimit:10;}&#10;	.st18{opacity:0.2;fill:#FFFFFF;}&#10;</style>&#10;&#10;&#10;&#10;&#10;&#10;&#10;<g
   id="g35"
   transform="matrix(2.2447807,0,0,2.2447807,-408.90141,-837.75625)">&#10;	<circle
   class="st1"
   cx="251.8"
   cy="517.5"
   r="23.1"
   id="circle30" />&#10;	<path
   class="st1"
   d="m 270.3,650.1 h -36.9 c -6.6,0 -12,-5.4 -12,-12 V 561 c 0,-6.6 5.4,-12 12,-12 h 36.9 c 6.6,0 12,5.4 12,12 v 77.1 c 0,6.6 -5.4,12 -12,12 z"
   id="path31" />&#10;	<path
   class="st1"
   d="m 214.1,658.9 h -10.6 c -2.1,0 -3.9,-1.7 -3.9,-3.8 v -95.6 c 0,-2.1 1.7,-3.8 3.9,-3.8 h 10.6 c 2.1,0 3.9,1.7 3.9,3.8 v 95.6 c -0.1,2.1 -1.8,3.8 -3.9,3.8 z"
   id="path32" />&#10;	<path
   class="st1"
   d="m 300.2,658.9 h -10.6 c -2.1,0 -3.9,-1.7 -3.9,-3.8 v -95.6 c 0,-2.1 1.7,-3.8 3.9,-3.8 h 10.6 c 2.1,0 3.9,1.7 3.9,3.8 v 95.6 c -0.1,2.1 -1.8,3.8 -3.9,3.8 z"
   id="path33" />&#10;	<path
   class="st1"
   d="m 232.9,791.6 v 0 c -6.4,0 -11.5,-5.2 -11.5,-11.5 V 665.8 c 0,-6.3 5.2,-11.5 11.5,-11.5 v 0 c 6.4,0 11.5,5.2 11.5,11.5 v 114.3 c 0.1,6.3 -5.1,11.5 -11.5,11.5 z"
   id="path34" />&#10;	<path
   class="st1"
   d="m 269,791.6 v 0 c -6.4,0 -11.5,-5.2 -11.5,-11.5 V 665.8 c 0,-6.3 5.2,-11.5 11.5,-11.5 v 0 c 6.4,0 11.5,5.2 11.5,11.5 v 114.3 c 0,6.3 -5.2,11.5 -11.5,11.5 z"
   id="path35" />&#10;</g>&#10;<path
   class="st5"
   d="m 444.00593,836.81984 c -8.1527,-1.27886 -22.2201,-3.99642 -38.36563,-10.55055 -87.60152,-35.16849 -119.89259,-131.56213 -158.57793,-121.3313 -1.59857,0.47957 -4.63585,1.43871 -7.99284,3.83656 -4.79571,4.47599 -9.59141,9.11184 -14.54697,13.90754 -11.18998,11.03012 -21.58067,22.06024 -30.85236,32.9305"
   id="path36" />&#10;<path
   class="st5"
   d="M 199.74948,542.75984 36.152867,440.89018 c 16.54122,5.84995 33.08242,11.90162 49.42191,17.75155 38.125473,28.03938 76.049233,56.07875 114.174703,84.11811 z"
   id="path37" />&#10;<path
   class="st5"
   d="m 416.60074,622.44007 c -7.66544,-12.91021 -28.84626,-44.7823 -69.79584,-62.53385 -22.39115,-9.68266 -42.96682,-11.69987 -56.48219,-11.9016 4.63961,-2.62239 12.70849,-6.85855 23.80321,-8.06888 13.91882,-1.61378 24.81182,2.42066 30.05659,4.6396 5.4465,2.62239 13.11193,6.65684 21.18081,13.31366 9.88439,8.06888 15.12916,15.93605 21.58427,24.81183 6.45511,9.48092 16.54122,22.99631 29.65315,39.73924 z"
   id="path38" />&#10;<path
   class="st5"
   d="M 414.332,727.83145 C 312.19673,664.50558 210.20471,601.3133 108.06945,537.98742 c -0.42974,-0.2672 -0.71623,-0.40079 -1.14597,-0.66799 -0.42974,0 -0.85949,0 -1.57572,0.2672 -2.57846,0.80159 -3.43794,3.47356 -4.01093,4.80956 -1.432461,3.74077 0.57299,10.15351 5.4434,16.69986 45.8391,21.37582 93.54043,45.29002 142.67423,71.8762 59.73408,32.19733 114.59777,64.79546 164.87754,96.8592 z"
   id="path39" />&#10;<path
   class="st5"
   d="m 405.79575,761.93998 c -26.22388,-47.20296 -52.64948,-94.40593 -78.87335,-141.6089 -5.44649,9.48094 -10.89298,21.38254 -12.70849,33.48587 -1.00861,7.46371 -2.01721,16.74293 3.22755,24.20664 1.61379,2.42067 3.02583,3.22756 9.48094,8.87578 6.25339,5.44649 11.09473,9.88438 14.12056,12.70849 21.78598,20.77738 43.16852,41.55475 64.75279,62.33212 z"
   id="path40" />&#10;<path
   class="st6"
   d="m 382.62718,476.18058 c -11.49817,-12.10332 -22.99632,-24.00492 -34.49448,-35.90653 -12.30505,-10.89299 -19.36533,-15.73432 -21.18082,-14.12055 -1.61379,1.41206 1.21033,7.66544 8.27061,19.16361 15.73432,10.08609 31.67036,20.57565 47.40469,30.86347 z"
   id="path41" />&#10;<path
   class="st6"
   d="m 306.47843,734.93941 c -26.02216,-6.45511 -52.04431,-12.70849 -78.26818,-19.1636 6.05167,-0.20173 12.10333,-0.60517 17.95327,-0.80689 20.37393,6.65683 40.34441,13.31366 60.31491,19.97049 z"
   id="path42" />&#10;<path
   class="st5"
   d="M 419.77185,707.46967 C 375.97109,617.31045 332.33019,527.15122 288.68928,437.15185 c 3.67671,26.53622 7.35342,53.23231 11.03012,79.76853 12.14912,14.22726 24.13838,29.57351 36.12764,45.8789 37.24663,50.6746 64.10257,100.23021 83.92481,144.67039 z"
   id="path43" />&#10;<path
   class="st5"
   d="m 654.14315,950.00678 c 14.11108,0.11198 25.53433,0.33598 33.03784,0.44796 22.28655,0.55997 33.9338,1.23193 62.9399,2.01587 8.39946,0.22399 15.11903,0.33598 19.26275,0.44797 82.09061,-0.22398 123.30401,1.34392 123.41591,4.47972 0.112,2.35184 -21.5026,5.59963 -64.8438,9.74336 54.7645,3.58377 66.1878,6.83156 66.1878,9.07141 0,5.03966 -55.4364,11.31125 -106.16912,11.75926 -36.73361,0.33593 -36.39763,-2.12786 -80.63474,-2.35191 -39.86941,-0.22396 -48.15687,2.68784 -63.38788,3.3598 -7.61551,0.33603 -10.52731,-0.11198 -22.62253,-0.67196 -7.39152,-0.33593 -25.64633,-1.00789 -46.47697,-0.78394 -21.95057,0.22395 -26.54228,0.33603 -26.54228,0.33603 -2.79982,0.11198 -8.06347,0.22395 -15.11901,0 -5.82362,-0.11208 -10.07934,-0.44801 -11.31127,-0.55998 -14.67104,-0.89602 -39.53342,0.4479 -42.33324,0.33593 -22.84651,-0.89592 -74.58715,-4.25572 -74.58715,-8.73541 0,-1.90387 9.2954,-4.5917 52.74858,-8.06347 6.15959,0.44797 16.35093,0.78395 28.89411,-0.67196 30.35003,-3.47178 39.19746,-13.32713 69.54748,-16.12695 2.79982,-0.22398 12.65518,-0.44797 32.2539,-0.67195 11.08727,-0.112 20.83064,-0.89595 39.9814,-2.01587 10.86329,-0.44797 19.8227,-1.00793 25.75832,-1.34391 z"
   id="path44" />&#10;<path
   class="st5"
   d="m 405.99177,712.80981 c -13.91883,-20.57565 -27.83765,-41.1513 -41.75648,-61.72695 -15.12916,-14.32227 -30.05659,-28.84626 -45.18575,-43.37026 29.04798,35.09965 57.89424,70.19929 86.94223,105.09721 z"
   id="path45" />&#10;<path
   class="st7"
   d="M 374.74116,904.30135"
   id="path46"
   style="stroke-width:1.58967" />&#10;<path
   class="st7"
   d="M 477.61933,895.61807"
   id="path47"
   style="stroke-width:1.58967" />&#10;<path
   class="st7"
   d="M 609.57005,975.65311"
   id="path48"
   style="stroke-width:1.11993" />&#10;<path
   class="st5"
   d="m 261.55916,362.53464 c -11.8294,-14.0674 -23.65881,-28.13479 -35.48821,-42.20219 7.67313,15.66596 15.98568,31.65164 24.93766,47.95704 30.6925,55.63016 64.10257,103.74705 96.87321,144.83024 10.23084,17.58425 20.46167,35.1685 30.69251,52.75274 C 339.56927,498.0932 300.56421,430.31392 261.55916,362.53464 Z"
   id="path49" />&#10;<path
   class="st5"
   d="m 493.61316,712.48949 c -15.00702,14.55905 -29.34209,25.98231 -34.82973,22.9585 -11.75924,-6.49557 15.343,-79.85079 34.15777,-78.50688 11.75924,0.89594 25.19836,31.13397 35.61368,148.16635"
   id="path50" />&#10;<path
   class="st5"
   d="m 484.28097,769.67006 c -12.30504,-43.97541 -33.68759,-92.79217 -71.40962,-139.79342 -4.43789,-5.44649 -8.87577,-10.89298 -13.51539,-15.93604 -2.62239,-5.24477 -9.88438,-7.262 -14.92743,-4.63961 -4.63961,2.42066 -6.25338,8.06888 -3.02583,12.7085 16.94466,17.34809 35.30137,38.12547 53.05291,62.53384 22.18943,30.86348 38.12548,60.11318 49.82536,85.12673 z"
   id="path51" />&#10;<path
   class="st5"
   d="M 475.22413,972.26148 C 413.67927,907.03991 351.97455,841.9782 290.42968,776.75663 c -4.95556,-5.27528 -10.07097,-10.55055 -15.02653,-15.82583 -3.51685,3.83657 -7.83299,9.2717 -11.18998,16.62511 -7.83298,16.46525 -7.51327,33.25021 -6.87384,41.56276 24.13837,8.79213 51.63374,21.1011 81.04739,38.36563 61.06529,36.12764 106.46462,80.24811 136.83741,114.77718 z"
   id="path52" />&#10;<path
   class="st5"
   d="m 447.85187,951.23588 c -47.60641,-37.31859 -110.74544,-71.2079 -186.59294,-74.63718 -5.44649,-0.20172 -10.69127,-0.40344 -15.93605,-0.20172 -2.01723,2.82411 -4.6396,7.26199 -6.25339,13.11194 -2.42066,7.66544 -2.21893,14.52399 -1.81549,18.55843 24.40837,-3.42927 59.50801,-5.4465 100.25587,1.81549 49.62364,8.47234 87.14396,27.23249 110.342,41.35304 z"
   id="path53" />&#10;<path
   class="st5"
   d="m 422.34718,847.10911 c -102.2731,-43.37025 -204.74793,-86.7405 -307.02103,-130.11075 -1.8155,-0.60517 -11.49816,-3.42929 -21.382541,2.21893 -7.66545,4.23618 -10.69128,11.09473 -11.69989,13.31366 4.43788,3.22756 10.69127,6.85855 18.558441,9.27922 13.31366,4.03445 24.61009,2.42067 26.42559,2.21895 14.524,-1.8155 94.0025,24.20664 295.11943,103.07999 z"
   id="path54" />&#10;<path
   class="st5"
   d="M 315.13452,618.20391 C 274.18494,570.5975 223.55269,520.16697 161.22057,471.55195 144.27592,458.44001 127.7347,446.13496 111.19348,434.6368 92.433327,429.59374 73.673177,424.75242 55.114747,419.91109 c 25.6187,14.52399 46.396083,27.23249 61.121793,36.5117 9.68266,6.05166 15.93605,10.08611 24.40837,15.93604 21.58427,14.92744 33.08243,25.21526 48.81676,37.72203 25.41697,20.17221 33.08242,23.6015 52.24601,37.92376 18.96188,14.12054 45.38747,36.71342 73.42684,70.19929 z"
   id="path55" />&#10;<path
   class="st5"
   d="m 410.12904,780.59463 c 3.63099,-5.04304 -142.61753,-98.03692 -170.45518,-107.71959 -7.66543,-2.62239 -15.12916,-5.04305 -22.59288,-7.06028 -8.47232,-2.42066 -20.17221,-2.62239 -25.01353,4.03445 -4.23616,5.64822 -2.21894,15.73433 4.23616,24.6101 5.4465,-0.20173 13.71711,0 23.39976,1.61377 20.97911,3.22756 35.09965,10.893 44.78231,15.73433 29.2497,14.72571 26.22387,8.87577 66.5683,27.23248 55.07012,25.01354 77.663,43.57197 79.07506,41.55474 z"
   id="path56" />&#10;<path
   class="st6"
   d="m 218.69709,856.46855 c -14.524,-15.33089 -28.84626,-30.66176 -43.16853,-45.99264 -10.69127,-9.0775 -16.54121,-13.11194 -17.3481,-12.50677 -0.60517,0.80689 3.22755,6.05166 11.69988,15.73432 16.33949,14.32227 32.47726,28.64453 48.81675,42.76509 z"
   id="path57" />&#10;<path
   class="st5"
   d="m 257.442,493.53966 c -9.88438,-13.71711 -19.76876,-27.63593 -29.45142,-41.35304 -6.05166,-9.68266 -12.30505,-12.91021 -14.32227,-10.28782 -2.01722,2.62239 -1.0086,11.29644 2.62239,20.37392 13.7171,10.48956 27.4342,20.97911 41.1513,31.26694 z"
   id="path58" />&#10;<path
   class="st5"
   d="M 476.91565,650.47945 C 401.87502,565.55444 326.83441,480.62944 251.79378,395.70443 c -17.14637,-10.48954 -34.09102,-21.18082 -51.2374,-31.67036 40.54613,39.3358 81.29399,79.88195 122.44531,122.24359 53.8598,55.47358 105.09722,110.34198 153.91396,164.20179 z"
   id="path59" />&#10;<path
   class="st5"
   d="M 449.81367,971.37178 C 412.31954,969.61015 365.5519,963.80101 313.6236,948.824 c -36.08175,-10.38622 -67.31908,-22.98454 -93.32355,-35.52803 -4.30121,-4.36088 -8.50724,-8.89965 -12.80845,-13.26055 33.18122,14.0962 70.69351,28.22223 112.31382,40.65722 46.98099,14.38858 90.7529,24.08555 130.00825,30.67914 z"
   id="path60" />&#10;<path
   class="st5"
   d="m 460.77559,968.12137 c -0.2082,-4.85218 -144.67461,25.09266 -303.8575,-48.4973 -21.69134,-10.05923 -39.55813,-20.00679 -52.77641,-28.19455 2.16638,7.89639 6.00016,17.52822 12.84415,26.90327 18.0406,24.74164 48.91787,29.78432 65.41806,32.34449 83.32986,13.02869 278.49261,23.13971 278.3717,17.44409 z"
   id="path78" /><path
   class="st5"
   d="m 282.07163,620.64467 c -6.05167,-5.64822 -12.10333,-11.09472 -18.15499,-16.74293 -3.22755,-2.01723 -7.06028,-1.41206 -9.0775,0.80689 -1.61377,2.01721 -1.41206,4.6396 -1.21033,5.04305 9.48094,3.83271 18.96188,7.26199 28.44282,10.89299 z"
   id="path61" />&#10;<path
   class="st6"
   d="m 170.85643,658.6836 c -9.0775,-6.85855 -18.15499,-13.7171 -27.23249,-20.57565 -0.60516,-0.20173 -9.07748,-3.63101 -9.88438,-2.01722 -0.80689,1.41206 5.24478,6.25338 6.05166,7.06027 10.28783,5.04306 20.57567,10.28782 31.06521,15.5326 z"
   id="path62" />&#10;&#10;<path
   class="st11"
   d="M 1056.3743,920.54131 H 441.17219 c -13.03529,0 -23.68608,-10.49182 -23.68608,-23.52711 V 52.263777 c 0,-13.035291 10.49182,-23.686077 23.68608,-23.686077 h 615.20211 c 13.0354,0 23.5272,10.491824 23.5272,23.686077 V 896.85523 c 0,13.19426 -10.4918,23.68608 -23.5272,23.68608 z"
   id="path69" />&#10;<path
   class="st12"
   d="M 1050.8105,562.86565 H 446.57707 c -10.49181,0 -19.07603,-8.58422 -19.07603,-19.07604 V 183.72946 c 0,-10.49182 8.58422,-19.07603 19.07603,-19.07603 h 604.23343 c 10.4918,0 19.0761,8.58421 19.0761,19.07603 v 360.06015 c 0,10.49182 -8.5843,19.07604 -19.0761,19.07604 z"
   id="path70" />&#10;<path
   class="st13"
   d="M 618.73829,871.42051 H 446.57707 c -10.49181,0 -19.07603,-8.58421 -19.07603,-19.07602 v -47.6901 c 0,-10.49182 8.58422,-19.07602 19.07603,-19.07602 h 172.16122 c 10.49182,0 19.07603,8.5842 19.07603,19.07602 v 47.6901 c 0,10.49181 -8.58421,19.07602 -19.07603,19.07602 z"
   id="path71"
   style="fill:#ffffff;fill-opacity:1" />&#10;<path
   class="st14"
   d="M 1050.8105,871.42051 H 878.64915 c -10.4918,0 -19.076,-8.58421 -19.076,-19.07602 v -47.6901 c 0,-10.49182 8.5842,-19.07602 19.076,-19.07602 h 172.16135 c 10.4918,0 19.0761,8.5842 19.0761,19.07602 v 47.6901 c 0,10.49181 -8.5843,19.07602 -19.0761,19.07602 z"
   id="path72" />&#10;<path
   class="st15"
   d="m 561.35122,964.73412 h -92.04187 c -10.49182,0 -19.07604,-8.58422 -19.07604,-19.07604 v -24.95781 h 130.19394 v 24.95781 c 0,10.49182 -8.58422,19.07604 -19.07603,19.07604 z"
   id="path73" />&#10;<path
   class="st15"
   d="m 1024.1041,966.16483 h -92.04205 c -10.4918,0 -19.076,-8.58422 -19.076,-19.07604 v -24.95782 h 130.19405 v 24.95782 c 0,10.49182 -8.5842,19.07604 -19.076,19.07604 z"
   id="path74" />&#10;<path
   class="st16"
   d="M 1032.3703,144.62359 H 465.01724 c -10.49182,0 -19.07603,-8.58422 -19.07603,-19.07604 V 70.703947 c 0,-10.491824 8.58421,-19.076042 19.07603,-19.076042 h 567.19416 c 10.4918,0 19.076,8.584218 19.076,19.076042 v 54.843603 c 0.159,10.49182 -8.4253,19.07604 -18.9171,19.07604 z"
   id="path75"
   style="stroke-width:1.58967" />&#10;<polygon
   class="st17"
   points="708,594.5 563.9,719.8 528.3,719.8 672.5,594.5 "
   id="polygon75"
   transform="matrix(1.5896695,0,0,1.5896695,-350.96015,-370.42936)" />&#10;<polygon
   class="st17"
   points="810.4,594.5 666.3,719.8 630.7,719.8 774.9,594.5 "
   id="polygon76"
   transform="matrix(1.5896695,0,0,1.5896695,-350.96015,-370.42936)" />&#10;<polygon
   class="st18"
   points="769.2,341 504,582.8 569.4,582.8 834.6,341 "
   id="polygon77"
   transform="matrix(1.5896695,0,0,1.5896695,-350.96015,-370.42936)" />&#10;<polygon
   class="st18"
   points="582.7,267.7 520.7,321.6 536,321.6 598,267.7 "
   id="polygon78"
   transform="matrix(1.5896695,0,0,1.5896695,-350.96015,-370.42936)" />&#10;&#10;<circle
   id="path1"
   style="fill:#000000;stroke:#ffffff;stroke-width:0.592135"
   cx="187.84193"
   cy="325.16895"
   r="11.379779" /></svg>
